<?xml version="1.0" encoding="UTF-8" standalone="no"?>
<svg
   xmlns:dc="http://purl.org/dc/elements/1.1/"
   xmlns:cc="http://creativecommons.org/ns#"
   xmlns:rdf="http://www.w3.org/1999/02/22-rdf-syntax-ns#"
   xmlns:svg="http://www.w3.org/2000/svg"
   xmlns="http://www.w3.org/2000/svg"
   xmlns:sodipodi="http://sodipodi.sourceforge.net/DTD/sodipodi-0.dtd"
   xmlns:inkscape="http://www.inkscape.org/namespaces/inkscape"
   version="1.1"
   id="svg2"
   xml:space="preserve"
   width="4064.4268"
   height="3109.6133"
   viewBox="0 0 4064.4268 3109.6133"
   sodipodi:docname="b-1.eps"><metadata
     id="metadata8"><rdf:RDF><cc:Work
         rdf:about=""><dc:format>image/svg+xml</dc:format><dc:type
           rdf:resource="http://purl.org/dc/dcmitype/StillImage" /></cc:Work></rdf:RDF></metadata><defs
     id="defs6" /><sodipodi:namedview
     pagecolor="#ffffff"
     bordercolor="#666666"
     borderopacity="1"
     objecttolerance="10"
     gridtolerance="10"
     guidetolerance="10"
     inkscape:pageopacity="0"
     inkscape:pageshadow="2"
     inkscape:window-width="640"
     inkscape:window-height="480"
     id="namedview4" /><g
     id="g10"
     inkscape:groupmode="layer"
     inkscape:label="ink_ext_XXXXXX"
     transform="matrix(1.3333333,0,0,-1.3333333,0,3109.6133)"><g
       id="g12"
       transform="scale(0.1)"><path
         d="m 8137.84,5381.98 c 40.05,106.93 97.68,209.09 171.36,303.74 81.64,104.89 183.82,198.48 302.58,277.12 248.78,164.57 562.76,251.7 884.7,245.5 114.49,-1.89 228.57,-11.64 341,-29.14 l 5.43,-1.04 c 124.14,-27.76 246.59,-60.16 366.99,-97.12 l 1907.6,-564.77 c 196,-58.91 394.1,-113.06 594.1,-162.36 284.8,-62.19 575.2,-106.73 868.5,-133.23 1003.3,-90.27 2035.3,1.8 3019.3,174.1 353.3,61.52 702.6,137.16 1046.6,226.61 384.8,100.09 758.2,226.46 1116.3,377.74 l 9.4,4.34 c 170.3,81.19 1023.2,566.48 1182.8,680.32 537.3,404.98 935.3,914.92 1155.3,1480.26 112.9,291.47 173.1,603.74 180.2,908.79 14.8,624.21 -175.6,1283.46 -626.8,1802.36 -236.1,270.9 -518.9,513.4 -839.8,720.3 -331.7,214.2 -686.7,404.2 -1060.5,567.5 -413.1,180.3 -838.2,342.3 -1273.3,485.1 l -1.3,0.4 c -411.5,131.6 -825.7,257.5 -1242.5,377.7 l -2626.3,766.7 c -268.2,77.2 -534.2,159.3 -797.8,246.1 -314.4,108.1 -620.5,231 -916.8,368.1 l -1.1,0.5 c -346.1,164.4 -815.2,427.7 -1121.6,662.9 -42,32.5 -83.1,65.8 -123.1,99.9 -41.1,34 -79.5,70 -114.9,107.9 l -544.98,702.1 147.78,-655 c 14.9,-65.9 34,-131.2 57.3,-195.5 159.4,-444.3 429.3,-857.8 793.4,-1215.5 408.1,-401.4 915.7,-730 1490.3,-964.8 l 6.3,-2.4 c 278.8,-101.8 560.2,-198.8 844.1,-291.2 l 3338.8,-1101.8 722.4,-240.9 c 164.6,-53.2 327.2,-110.4 487.4,-171.6 263.6,-121.7 515.2,-259.4 752.7,-411.8 371.7,-238.1 698.3,-524.7 908.4,-870.7 76.8,-126.4 134.4,-259.77 171.5,-397.23 72.1,-270.28 47.8,-546.2 -45.5,-809.01 -81.2,-229.87 -211.9,-446.5 -386.1,-640.01 -92.7,-102.4 -196.2,-198.15 -309.4,-286.19 -126,-97.87 -261.4,-187.67 -404.9,-268.58 -167.8,-94.72 -341.3,-182.83 -519.8,-264.01 -195.3,-89.56 -397.6,-168.94 -605.6,-237.66 l -3.4,-1.04 c -211,-60.59 -424.4,-115.71 -639.9,-165.28 -241.4,-60.02 -485,-113.87 -730.7,-161.47 -542.9,-86.38 -1095.3,-128.45 -1648.8,-125.56 -609.6,4 -1218.6,79.11 -1806.9,207.33 l -0.9,0.18 c -305.4,65.48 -605.4,146.24 -898.3,241.81 l -0.7,0.22 c -327.6,105.48 -639.1,240.84 -928.4,403.42 -275.6,154.7 -515.1,347.47 -707.2,569.39 -207.03,242.4 -339.53,520.92 -386.55,812.63 -6.08,32.72 -9.07,65.75 -8.96,98.84 l 0.04,10775.72 c -1.77,37.5 9.5,59 38.49,88.8 120.22,127.3 244.32,252.2 372.18,374.6 428.5,410.5 968.8,798.4 1553,1079.3 l 2.6,1.2 c 172.7,79.2 348.9,153.6 528,223 204.2,83.6 411.9,161.4 622.9,233.3 612.7,180.8 1255.8,286.6 1907.6,313.8 340,14 680.7,9.3 1019.9,-14.1 376.8,-26.5 751.1,-71.9 1120.8,-136 617.1,-106.3 1186.4,-256.9 1733.6,-494.2 280.8,-121.8 538.2,-265.4 771.5,-437.9 252.7,-187 462.8,-404.6 613.8,-651.3 95.9,-157.3 165.5,-324.1 206.9,-496.1 44.9,-186.8 60.4,-377.4 46.1,-567.4 l -0.2,-1.8 c -13.9,-101.4 -31.7,-202.4 -53.5,-302.8 -9.5,-42.1 -19.3,-84.1 -29.6,-126.1 -10.5,-44.6 -24.8,-88.6 -42.8,-131.6 -60,-100 -138.8,-191.9 -233.8,-272.4 -99.6,-85.1 -214.5,-177 -335.8,-248.1 -153.5,-88.5 -313.5,-169.4 -479.2,-242.4 -178.5,-78.1 -351,-164.9 -516.5,-259.9 l -5.6,-3.3 c -166.1,-104.4 -311.9,-228.3 -432.4,-367.4 -132.5,-153.6 -252.5,-313.9 -359.1,-480 l -3.7,-6.1 c -48.7,-86.6 -94.2,-174.3 -136.2,-263.1 -219.6,-457.8 -263.6,-555 -493.9,-1074.9 l 300.1,72.4 c 35.4,8.5 69.1,21.2 99.9,37.6 75.5,40 147.9,100.2 198.2,162.8 l 1.8,2.3 c 54.2,69.9 110,138.9 167.4,207 81.6,80.6 173.6,154 274.4,219 181.6,117.7 368.4,230.2 559.9,337.3 210.6,118.3 426.5,230.5 647.1,336.3 l 1.6,0.8 c 180.9,83 363,164.2 546.3,243.6 337.4,144 684,298.8 966.9,511 158.7,120 302.3,252.4 428.7,395.1 l 0.4,0.5 c 194.2,215.2 344.8,453.9 446.1,707 112.5,282.9 162.6,579.5 148,876.3 -14.2,301.1 -86,598.7 -212.8,882.3 -138.4,311.5 -333.8,604.6 -579.5,869.7 -241.8,260.5 -521.2,496.9 -832.3,704.2 -342.5,228.3 -714.3,426.5 -1109.2,591 -398.6,166.6 -814,305.5 -1241.9,415.1 -473.5,121.7 -958.1,213.1 -1449.4,273.3 -773.7,96.7 -1536.9,164.2 -2318.2,102.7 -638.4,-49 -1254.9,-158.9 -1869.9,-295.8 -244.4,-53.2 -486.4,-113.9 -725.2,-181.8 -332.9,-110 -664,-223.5 -993.3,-340.4 -221.5,-76.9 -443.6,-152.8 -666.17,-227.7 -62.09,-21.5 -126.12,-39.2 -191.54,-53 -280.71,-43.7 -571.25,-18.9 -834.35,71.2 -284.69,98.4 -520.13,270.8 -668.67,489.6 -70,104.9 -136.29,211.4 -198.75,319.3 l -457.44,-11.3 -89.45,-74.3 V 5251.42 l 92.89,-74.76 h 453.19 l 84.6,51.11 55.73,154.21"
         style="fill:#0000ff;fill-opacity:1;fill-rule:evenodd;stroke:none"
         id="path14" /><path
         d="m 13844.2,14708.6 c 329.3,-113.1 587.4,-195.3 1123,-364.4 910.3,-287.5 2489.6,-789.6 3476.9,-1211.1 l 5.6,-2.4 c 272.2,-124.9 541.4,-253.9 807.6,-387 323.1,-158.4 642.4,-321.8 957.8,-490.1 107.2,-62.5 212.3,-127.2 315.3,-194.1 357.4,-227.8 653.9,-515.5 836,-853 l 3.7,-6.9 c 44.1,-91.6 84,-184.6 119.4,-278.6 78.1,-196.7 152.8,-394.2 223.9,-592.5 26.7,-71.3 50.1,-143.4 70,-216.2 33.9,-148.46 57.6,-465.66 50.7,-615.57 -18.2,-329.49 -42.2,-658.77 -71.9,-987.73 l -38.4,-490.89 -11.1,-204.85 c -5.3,-89.6 0.2,-142.95 37.2,-216.1 17.4,-34.42 50.1,-64.96 98.6,-52.5 36.9,10.05 70,27.52 96.2,50.73 73.3,67.22 134.7,142.35 182.2,223.23 82,137.44 153.6,278.8 214.1,423.28 l 203.1,476.8 c 133,310.67 252.1,625.09 357.1,942.63 52.2,160.38 116.8,388.07 127.3,571.97 11.4,200.5 -9.2,544.3 -25.6,753.5 l -16,0.2 c -64.6,239.7 -115.6,403 -220.1,625.5 -202.9,421.7 -501.2,809.3 -879.8,1143.4 -207.2,183.8 -428.2,357.2 -662,519.1 -92.6,62.3 -188.6,121.1 -287.8,176.4 -282.9,166.2 -571.6,325.9 -865.7,478.9 -270,126.2 -546.7,242.7 -829.5,349.2 -311.4,117.2 -627.7,225.7 -948.4,325.3 -387,119.8 -775.7,236 -1166,348.5 l -2167.2,621.8 -101.4,29.1 c -173.2,49.2 -344.6,102.6 -513.9,160 -212.5,79.9 -793,355.9 -1015.7,461.9 -92.2,43.1 -182.5,89 -270.5,137.6 -157.1,96 -304,202.3 -439.2,317.9 -151.7,129.3 -280.8,274.8 -383.7,432.2 -217.2,333.6 -258.3,700.1 -159.5,1057.2 64.3,240.1 179.8,469.5 341.4,677.9 180.2,231.1 407,436.3 671.2,607.4 l 9.1,5.5 c 92.5,51.9 188,100.3 286.1,145.2 l 308.8,143.3 c 89.5,41.8 181.3,80.3 275.2,115.4 l 10.9,3.7 c 223.6,67.7 452.5,123.6 685.2,167.3 255.2,49.3 513.8,86.1 774.5,110.3 566.8,49.9 1232.1,-17.3 1800.6,-152.9 427.1,-102 788.5,-252.3 1138.7,-469.8 144.1,-89.5 348.3,-231.6 450.9,-375.1 71.7,-103.7 140,-208.9 204.7,-315.6 51.7,-87.7 110.1,-172.8 174.8,-254.7 28.4,-31.4 107.9,-47.2 140.9,-8.9 28.7,34.3 46.4,73.8 51.7,114.9 25.1,190.3 0.9,423.5 -50.8,621.3 -149.2,571 -576.9,1146.5 -1176.4,1496 -289.5,165.9 -608.9,295 -947.1,382.8 -373.4,97 -760.1,156.7 -1151.6,177.8 -1163.9,63.4 -2456.8,-138.6 -3487.8,-581.9 -698.4,-300.2 -1301.1,-742.6 -1707.4,-1291.5 -220.3,-298.1 -382.5,-621.6 -480.7,-959.3 -38.2,-134.5 -115,-643.3 -118.8,-812.9 v -2.9 c 4.9,-233.9 50.5,-466 135.2,-689.7 94.8,-248.9 235.5,-485 417.4,-700.3 183.8,-217.7 401.5,-415.6 647.8,-588.9 269.9,-189.8 566.1,-354.1 882.6,-489.5 168.7,-70.3 340.3,-135.8 514.6,-196.4 449.2,-160.2 726.4,-258.7 966,-340.9"
         style="fill:#ff5100;fill-opacity:1;fill-rule:evenodd;stroke:none"
         id="path16" /><path
         d="M 245.262,69.6641 H 1696.39 c 180.51,0.8281 358.5,42.4449 520.67,121.7419 311.33,151.102 562.07,432.907 622.43,780.633 50.14,288.871 -67.26,567.991 -308.88,725.351 64.96,47.9 123.87,103.49 175.46,165.56 226.08,270 281.86,669.93 5.16,925.07 -73.37,68.96 -160.38,121.78 -255.41,155.06 -99.39,34.53 -203.68,52.8 -308.88,54.13 l -1454.885,0.01 c -148.114,-1.43 -267.481,-118.59 -292.946,-259.9 -18.289,-101.46 11,-215.75 103.848,-272.02 2.824,-22.94 2.516,-46.17 -0.926,-69.04 L 220.961,700.328 C 216.863,673.59 208.313,647.723 195.668,623.809 L 193,618.41 c -0.773,-1.687 -1.969,-3.144 -3.469,-4.238 C 139.977,593.621 97.4531,559.129 67.1133,514.883 -7.37109,407.336 -26.8438,267.332 52.6211,161.984 98.25,102.02 169.938,67.6641 245.262,69.6641 Z M 1366.53,1235.07 c 31.29,5.62 62.4,12.22 93.28,19.78 71.55,16.73 142.85,34.52 213.87,53.37 58.32,-75.01 101.59,-171.29 86.2,-268.16 -18.47,-116.173 -78.19,-215.599 -161.18,-296.779 -72.03,-71.379 -167.82,-113.746 -269.09,-119.019 -11.93,0.582 -22.81,7.015 -29.06,17.191 -16.44,27.777 -22.5,60.477 -17.1,92.297 z m 115.61,697.57 65.49,395.09 c 12.67,67.92 91.21,112.35 158.33,114.99 78.54,3.09 150.25,-59.84 133.95,-142.22 -29.63,-149.81 -238.81,-295.39 -357.77,-367.86 z M 4078.13,667.336 4186.66,1322.18 h 425.68 L 4509.3,700.461 c -4.1,-26.75 -12.65,-52.621 -25.3,-76.543 l -2.66,-5.402 c -0.78,-1.696 -1.98,-3.157 -3.49,-4.254 -49.58,-20.594 -92.13,-55.141 -122.46,-99.446 -31.52,-45.132 -52.5,-96.773 -61.37,-151.101 C 4265.21,199.676 4381.4,67.2031 4533.5,69.2148 l 838.41,0.0157 c 148.15,1.2734 271.67,114.5195 295.37,258.1565 17.07,103.488 -14.93,214.965 -107.01,273.543 -2.9,22.05 -2.74,44.398 0.49,66.406 l 280.97,1695.304 c 4.26,26.78 15.66,67.46 31.14,89.2 49.18,19.73 91.63,53.2 122.29,96.42 77.63,108.15 98.5,247.92 19.77,355.95 -46.28,62.84 -121.29,97.86 -199.17,93.01 l -836.56,-0.02 c -147.59,-1.59 -266.49,-119.59 -291.81,-260.11 -18.29,-101.51 10.93,-215.89 103.82,-272.22 2.83,-22.94 2.51,-46.15 -0.92,-69 l -86.04,-519.14 h -425.68 l 80.53,485.91 c 4.32,28.35 13.19,55.81 26.25,81.33 1.47,2.73 3.1,5.35 4.89,7.87 49.18,19.73 91.64,53.2 122.3,96.42 77.62,108.15 98.5,247.92 19.76,355.95 -46.28,62.84 -121.29,97.86 -199.17,93.01 l -836.56,-0.02 c -147.59,-1.59 -266.49,-119.59 -291.81,-260.11 -18.29,-101.51 10.94,-215.89 103.82,-272.22 2.83,-22.94 2.51,-46.15 -0.92,-69 L 3026.67,700.461 c -4.1,-26.75 -12.65,-52.621 -25.29,-76.543 l -2.67,-5.402 c -0.78,-1.696 -1.98,-3.157 -3.48,-4.254 -49.59,-20.594 -92.14,-55.141 -122.47,-99.446 -31.52,-45.132 -52.5,-96.773 -61.37,-151.101 -28.81,-164.039 87.38,-296.5119 239.49,-294.5002 l 838.4,0.0157 c 148.15,1.2734 271.67,114.5195 295.37,258.1565 17.08,103.488 -14.93,214.965 -107.01,273.543 -2.9,22.05 -2.74,44.398 0.49,66.406 z M 6032.6,69.2148 l 387.17,0.0157 c 71.76,1.2343 140.71,28.0976 194.4,75.7385 102.3,89.41 136.03,243.34 74.71,366.34 l -53.95,102.984 c -1.04,1.812 -1.43,3.922 -1.09,5.984 16.13,63.223 101.11,214.907 148.34,295.102 h 614.15 l 16.1,-169.297 c 4.36,-38.402 5.17,-77.129 2.41,-115.68 -2.32,-10.187 -7.48,-19.507 -14.89,-26.871 l -80.62,-85.636 C 7226.22,418.969 7207.59,267.871 7289.56,161 7336.23,100.793 7408.97,66.6523 7485.1,69.2148 l 804.07,0.0157 c 148.94,1.2812 275.67,116.8435 295.69,260.2775 15.68,112.359 -54.6,187.234 -108.61,274.023 -15.8,26.614 -25.27,56.516 -27.65,87.383 -35.92,562.476 -77.94,1055.446 -205.67,1619.926 -36.17,161.78 -81.45,321.39 -135.62,478.07 -44.03,126.11 -169.42,207.05 -301.08,208.28 l -230.36,0.03 c -66.6,-0.7 -131.96,-18.06 -190.12,-50.51 -58.15,-31.89 -107.82,-77.22 -144.88,-132.22 -232.98,-336.55 -449.51,-684.2 -648.83,-1041.72 -189.2,-339.13 -359.97,-688.22 -511.56,-1045.743 -17.45,-39.523 -42.76,-75.089 -74.37,-104.535 l -111.24,-97.601 c -114.93,-95.707 -142.48,-249.043 -54.97,-363.18 45.59,-60.063 117.32,-94.4922 192.7,-92.4962 z M 7056.5,1537.73 c 36.42,69.99 75.18,138.73 116.23,206.1 34.19,56.24 69.36,111.88 105.48,166.9 20.19,-109.99 39.88,-256.84 52.5,-373 z m 1639.05,973.08 c 24.31,-40.83 38.31,-86.96 40.79,-134.4 -0.35,-376.16 30.99,-751.67 93.68,-1122.56 58.41,-346.307 150.16,-686.151 273.99,-1014.795 42.26,-110.547 162.64,-168.5198 275.43,-169.8089 l 294.47,-0.0313 c 111.41,0.2266 221.41,52.5042 292.39,138.4302 l 2.31,2.843 c 250.49,319.453 476.49,657.391 676.09,1010.922 202.7,359 378.4,732.6 525.7,1117.7 15.3,37.15 38.8,70.42 68.6,97.41 l 113,97.14 c 117,96.07 145.4,252.29 59.9,369.85 -45.1,62.66 -119.1,97.99 -196.3,93.71 l -514.1,-0.02 c -72.2,-1.19 -141.5,-28.45 -195.2,-76.77 -54.7,-48.02 -90.5,-113.98 -101,-186.02 -13.4,-82.43 13.4,-166.3 72.2,-225.6 l 102.6,-97.51 c -160.1,-468.01 -388.7,-899.48 -661.39,-1310.5 -47.97,172.93 -84.64,348.8 -109.78,526.5 -36.44,257.52 -50.97,517.66 -43.45,777.64 1.95,9.48 7,18.04 14.37,24.32 l 100.14,94.67 c 48.6,46.73 81.32,107.52 93.56,173.81 14.04,71.76 -1.95,146.12 -44.23,205.77 -45.19,62.66 -119.19,97.99 -196.32,93.71 l -806.41,-0.02 c -71.41,-1.54 -139.76,-29.36 -191.95,-78.13 -51.51,-47.53 -93.87,-119.61 -101.3,-190.39 -3.12,-77.41 18.69,-153.78 62.21,-217.87 z M 11540.6,69.2148 11863,69.2422 c 145.6,1.6172 265.4,116.9058 291.1,256.0668 19,102.562 -9,219.316 -103.4,276.414 -2.8,21.742 -2.6,43.761 0.6,65.449 l 148.3,894.848 676.7,-1332.243 c 57,-116.398 160.8,-163.734 277.2,-160.5622 l 256.8,0.0274 c 144.3,1.6172 267.2,117.5508 291,256.9808 l 337.4,2035.737 c 4.3,26.93 15.7,68 31.3,89.88 49.2,19.73 91.6,53.2 122.3,96.42 77.6,108.15 98.5,247.92 19.7,355.95 -46.2,62.84 -121.3,97.86 -199.1,93.01 l -320.5,-0.02 c -147.6,-1.59 -266.5,-119.56 -291.8,-260.11 -18.3,-101.53 10.9,-215.91 103.8,-272.24 2.9,-22.93 2.5,-46.14 -0.9,-68.99 l -110.6,-667.27 -614.1,1147.57 c -48.7,86.78 -151.8,121.8 -245.6,121.06 l -710.2,-0.02 c -149.2,-1.61 -268.2,-120.84 -292,-261.11 -16.2,-96.42 18.7,-194.37 92.1,-258.91 l 135.4,-119.36 c 17.4,-15.33 25.7,-38.48 22,-61.33 L 11516,700.293 c -5.5,-34.23 -12.8,-50.066 -28,-81.891 -0.8,-1.695 -2,-3.164 -3.5,-4.257 -49.4,-20.555 -91.9,-54.813 -122.4,-98.727 -76.5,-108.816 -98.7,-247.996 -17,-354.445 46.6,-60.188 119.4,-94.3167 195.5,-91.7582 z m 2578.6,0 387.1,0.0157 c 71.8,1.2343 140.7,28.0976 194.4,75.7385 102.3,89.41 136.1,243.34 74.7,366.34 l -53.9,102.984 c -1.1,1.812 -1.4,3.922 -1.1,5.984 16.1,63.223 101.1,214.907 148.3,295.102 h 614.2 l 16.1,-169.297 c 4.4,-38.402 5.2,-77.129 2.4,-115.68 -2.3,-10.187 -7.5,-19.507 -14.9,-26.871 l -80.6,-85.636 c -93.1,-98.926 -111.8,-250.024 -29.8,-356.895 46.7,-60.207 119.4,-94.3477 195.6,-91.7852 l 804,0.0157 c 149,1.2812 275.7,116.8435 295.7,260.2775 15.7,112.359 -54.6,187.234 -108.6,274.023 -15.8,26.614 -25.3,56.516 -27.6,87.383 -36,562.476 -78,1055.446 -205.7,1619.926 -36.2,161.78 -81.5,321.39 -135.6,478.07 -44.1,126.11 -169.5,207.05 -301.1,208.28 l -230.4,0.03 c -66.6,-0.7 -131.9,-18.06 -190.1,-50.51 -58.1,-31.89 -107.8,-77.22 -144.9,-132.22 -233,-336.55 -449.5,-684.2 -648.8,-1041.72 -189.2,-339.13 -360,-688.22 -511.6,-1045.743 -17.4,-39.523 -42.7,-75.089 -74.3,-104.535 l -111.3,-97.601 c -114.9,-95.707 -142.4,-249.043 -54.9,-363.18 45.6,-60.063 117.3,-94.4922 192.7,-92.4962 z M 15143.1,1537.73 c 36.4,69.99 75.1,138.73 116.2,206.1 34.2,56.24 69.3,111.88 105.5,166.9 20.2,-109.99 39.8,-256.84 52.5,-373 z M 17418.9,405.188 c 123.5,-127.711 271.3,-229.356 434.8,-298.922 375.7,-159.6215 789.7,-132.5316 1142.9,51.183 379,197.199 675.9,554.535 750.6,981.861 38.3,219.59 -44.4,430.37 -194.6,583.2 -81.7,84.67 -177.7,154.33 -283.5,205.81 -110.9,53.91 -228.3,93.41 -349.3,117.56 -97.5,19.69 -245.5,73.25 -296.6,174.49 -39.4,77.98 38.9,185.95 100.6,232.09 124.5,93.08 303,123.81 408.9,-15.48 31.3,-40.46 56.4,-85.4 74.4,-133.32 19.5,-55.26 32.4,-112.7 38.4,-171.05 9.4,-91.04 56.6,-166.48 137.1,-203.73 69.4,-32.68 149.8,-32.74 219.3,-0.18 79,36.16 130.7,109.92 145.5,194.76 l 67.9,409.43 c 5.7,34.21 3.3,69.28 -7,102.41 -10.2,32.83 -27.6,62.99 -50.9,88.3 l -2.6,2.66 c -218.1,225.82 -540.8,326.28 -850.2,324.49 -206.3,-0.52 -410.2,-43.96 -598.8,-127.58 -459.2,-201.75 -827.3,-654.11 -703.2,-1177.79 30.5,-127 90.4,-245.05 174.9,-344.67 174.8,-208.98 416.5,-328.77 676.8,-380.25 78.8,-15.57 202.4,-61.405 240.7,-146.233 6.9,-16.047 9.4,-33.637 7.2,-50.969 -11.9,-72.641 -67.6,-139.055 -128.6,-180.653 -141.8,-96.679 -348,-127.941 -489,-10.089 -66.1,56.246 -113.5,131.246 -136.1,215.07 -39.9,147.723 -170.3,286.004 -332.1,283.284 -176.9,-2.98 -307.7,-162.612 -335.2,-325.358 -25.2,-149.047 34,-294.637 137.7,-400.324 z m 2339.8,-335.9732 387.2,0.0157 c 71.7,1.2343 140.7,28.0976 194.4,75.7385 102.3,89.41 136,243.34 74.7,366.34 l -54,102.984 c -1,1.812 -1.4,3.922 -1,5.984 16.1,63.223 101.1,214.907 148.3,295.102 h 614.1 l 16.1,-169.297 c 4.4,-38.402 5.2,-77.129 2.5,-115.68 -2.4,-10.187 -7.5,-19.507 -14.9,-26.871 l -80.7,-85.636 c -93.1,-98.926 -111.7,-250.024 -29.7,-356.895 46.6,-60.207 119.4,-94.3477 195.5,-91.7852 l 804.1,0.0157 c 148.9,1.2812 275.6,116.8435 295.7,260.2775 15.7,112.359 -54.6,187.234 -108.6,274.023 -15.8,26.614 -25.3,56.516 -27.7,87.383 -35.9,562.476 -77.9,1055.446 -205.7,1619.926 -36.1,161.78 -81.4,321.39 -135.6,478.07 -44,126.11 -169.4,207.05 -301.1,208.28 l -230.3,0.03 c -66.6,-0.7 -132,-18.06 -190.1,-50.51 -58.2,-31.89 -107.9,-77.22 -144.9,-132.22 -233,-336.55 -449.5,-684.2 -648.8,-1041.72 -189.2,-339.13 -360,-688.22 -511.6,-1045.743 -17.5,-39.523 -42.8,-75.089 -74.4,-104.535 L 19621,524.891 c -114.9,-95.707 -142.5,-249.043 -55,-363.18 45.6,-60.063 117.3,-94.4922 192.7,-92.4962 z M 20782.6,1537.73 c 36.4,69.99 75.2,138.73 116.2,206.1 34.2,56.24 69.4,111.88 105.5,166.9 20.2,-109.99 39.9,-256.84 52.5,-373 z m 2927.5,-870.472 82.1,495.532 30.3,2.96 c 72.2,-136.74 126.4,-328.312 157.5,-488.984 -2.6,-13.743 -25.6,-46.911 -35.5,-59.61 -93.6,-119.781 -177.6,-315.976 -69.2,-456.176 46.7,-60.191 119.4,-94.3237 195.6,-91.7652 l 868.5,0.0157 c 71.8,1.2343 140.7,28.0937 194.4,75.7265 54.1,47.273 96.2,119.113 102.3,191.859 1,40.082 -9.2,79.637 -29.5,114.231 l 0.6,-0.992 c -14.1,23.738 -31.3,45.5 -51.2,64.707 -22.7,25.125 -38.2,55.945 -44.9,89.183 -56.9,302.016 -133.9,568.875 -262.5,845.685 129.4,72.99 245,168 341.7,280.76 114.8,130.88 192.3,290.18 224.5,461.26 26.9,149.21 -8.7,302.92 -98.3,425.19 -199,274.79 -567.2,383.27 -897.3,380.38 l -1290.7,-0.02 c -147.5,-1.58 -266.4,-119.38 -291.7,-259.88 -18.3,-101.47 11,-215.75 103.8,-272.02 2.8,-22.94 2.5,-46.16 -0.9,-69.01 L 22658.6,700.379 c -4.1,-26.738 -12.6,-52.602 -25.3,-76.516 l -2.6,-5.402 c -0.8,-1.688 -2,-3.152 -3.5,-4.246 -49.6,-20.586 -92.2,-55.129 -122.5,-99.43 -31.5,-45.125 -52.5,-96.762 -61.4,-151.09 -28.8,-164.031 87.4,-296.4919 239.5,-294.4802 l 838.4,0.0157 c 148.2,1.2734 271.7,114.5075 295.4,258.1365 17.1,103.485 -14.9,214.949 -107,273.516 -2.9,22.043 -2.8,44.379 0.5,66.375 z m 183.5,1107.322 74.7,450.7 c 10.8,59.04 41.2,112.68 86.4,152.18 43.1,38.42 139.2,89.16 192.4,51.1 75.9,-54.24 83.1,-214.68 66.4,-299.89 -8.6,-35.55 -25.6,-68.51 -49.6,-96.08 -96.6,-112.04 -236.2,-195.8 -370.3,-258.01 z m 1731.1,-1704.9159 1740.6,0.0078 c 62.8,0.9023 124,20.0547 176.1,55.1291 53.4,35.347 95.9,84.922 122.7,143.133 l 134.4,338.793 c 38.6,75.914 36.1,166.238 -6.6,239.918 -46.6,78.5 -133.8,123.668 -224.8,116.48 -97.2,-6.781 -188.5,-49.5 -255.9,-119.844 l -167.3,-164.238 c -30.4,-31.586 -71.2,-51.066 -114.9,-54.828 l -351.6,-0.035 c -22.3,-0.293 -30.5,17.734 -27,35.222 l 116,698.458 h 292.8 c 6.2,-0.45 12,-3.32 16.1,-7.98 l 74.4,-82.84 c 43.8,-49.33 105.9,-78.44 171.9,-80.49 73.6,-1.09 144.7,27 197.6,78.14 52.8,48.15 88,112.57 100.1,183.02 l 55.9,337.68 c 28,157.66 -87.4,299.79 -240.3,294.82 -64.6,-2.24 -126.6,-26.12 -175.9,-67.82 l -103.2,-81.85 c -12,-10.17 -26.9,-16.48 -42.6,-18.12 h -254.9 l 74.4,448.87 c 4.1,23.59 15.9,45.15 33.6,61.26 13.3,12.74 30.9,19.94 49.3,20.13 l 257.8,-0.02 c 29.3,-1.23 56.5,-15.21 74.6,-38.25 l 117.8,-147.9 c 57,-73.5 143.8,-117.8 236.8,-120.86 72.5,-1.48 143.4,20.89 201.9,63.67 66.4,47.71 102.8,113.59 94.3,191.87 l -36.8,378.4 c -21.4,136.09 -141.9,234.2 -279.5,227.63 l -1612.1,-0.02 c -147.5,-1.58 -266.5,-119.38 -291.8,-259.88 -18.3,-101.46 11,-215.74 103.8,-272.01 2.9,-22.97 2.5,-46.22 -0.9,-69.1 L 25600.4,700.371 c -4.1,-26.75 -12.6,-52.629 -25.3,-76.555 l -2.6,-5.402 c -0.8,-1.687 -2,-3.152 -3.5,-4.246 -49.6,-20.555 -92.1,-55.043 -122.4,-99.285 -74.5,-107.547 -94,-247.551 -14.5,-352.899 45.6,-59.964 117.3,-94.3199 192.6,-92.3199 z m 2481.7,0 1740.6,0.0078 c 62.8,0.9023 124,20.0547 176,55.1291 53.5,35.347 96,84.922 122.8,143.133 l 134.4,338.793 c 38.6,75.914 36.1,166.238 -6.6,239.918 -46.6,78.5 -133.8,123.668 -224.8,116.48 -97.3,-6.781 -188.5,-49.5 -255.9,-119.844 l -167.3,-164.238 c -30.4,-31.586 -71.3,-51.066 -114.9,-54.828 l -351.6,-0.035 c -22.4,-0.293 -30.5,17.734 -27.1,35.222 l 116,698.458 h 292.9 c 6.2,-0.45 12,-3.32 16.1,-7.98 l 74.3,-82.84 c 43.8,-49.33 106,-78.44 172,-80.49 73.6,-1.09 144.6,27 197.6,78.14 52.8,48.15 88,112.57 100,183.02 l 56,337.68 c 28,157.66 -87.4,299.79 -240.3,294.82 -64.6,-2.24 -126.6,-26.12 -176,-67.82 l -103.1,-81.85 c -12,-10.17 -26.9,-16.48 -42.6,-18.12 H 29340 l 74.3,448.87 c 4.1,23.59 16,45.15 33.7,61.26 13.3,12.74 30.9,19.94 49.3,20.13 l 257.8,-0.02 c 29.3,-1.23 56.5,-15.21 74.6,-38.25 l 117.7,-147.9 c 57.1,-73.5 143.9,-117.8 236.9,-120.86 72.4,-1.48 143.4,20.89 201.9,63.67 66.4,47.71 102.8,113.59 94.3,191.87 l -36.8,378.4 c -21.5,136.09 -141.9,234.2 -279.6,227.63 l -1612,-0.02 c -147.5,-1.58 -266.5,-119.38 -291.8,-259.88 -18.3,-101.46 11,-215.74 103.8,-272.01 2.8,-22.97 2.5,-46.22 -0.9,-69.1 L 28082.1,700.371 c -4.1,-26.75 -12.6,-52.629 -25.3,-76.555 l -2.6,-5.402 c -0.8,-1.687 -2,-3.152 -3.5,-4.246 -49.6,-20.555 -92.1,-55.043 -122.4,-99.285 -74.5,-107.547 -94,-247.551 -14.5,-352.899 45.6,-59.964 117.3,-94.3199 192.6,-92.3199"
         style="fill:#090808;fill-opacity:1;fill-rule:evenodd;stroke:none"
         id="path18" /><path
         d="M 243.801,177.664 H 1695.89 c 168.44,1.711 326.44,38.68 474.02,110.906 147.57,72.227 271.58,169.434 372.02,291.629 100.45,122.196 164.19,259.102 191.22,410.719 24.33,162.172 -2.67,306.282 -81.02,432.322 -78.35,126.03 -196.1,213.92 -353.25,263.67 130.01,59.04 238.14,140.84 324.39,245.38 86.24,104.55 139.77,220.25 160.58,347.1 23.12,171.94 -25.54,315.06 -145.97,429.36 -120.45,114.31 -284.64,174.46 -492.58,180.47 H 693.207 c -45.422,-1.11 -85.754,-17.59 -121.004,-49.45 -35.246,-31.85 -57.515,-72.38 -66.805,-121.61 -6.269,-39.94 -3.453,-74.98 8.446,-105.13 11.898,-30.14 31.492,-50.93 58.789,-62.37 17.508,-7.81 29.312,-27 35.414,-57.56 6.101,-30.56 6.32,-68.48 0.652,-113.77 L 327.715,683.969 C 320.137,640.395 307.945,603.512 291.141,573.324 274.332,543.133 255.77,524.098 235.449,516.215 204.375,504.859 177.863,483.922 155.91,453.406 133.961,422.891 119.355,386.809 112.102,345.16 c -6.747,-47.519 2.257,-87.015 27.011,-118.496 24.75,-31.48 59.645,-47.812 104.688,-49 z M 1272.79,1329.99 c 35.92,3.49 89.88,13.46 161.87,29.89 71.99,16.44 163.79,39.78 275.39,70.05 61.18,-63.36 105.22,-130.28 132.13,-200.77 26.91,-70.49 35.03,-139.2 24.36,-206.12 -26.97,-142.692 -90.91,-261.517 -191.82,-356.47 -100.91,-94.957 -215.38,-145.074 -343.42,-150.355 -53.56,1.785 -94.67,24.984 -123.32,69.601 -28.66,44.614 -39,99.938 -31.02,165.965 z m 67.44,406.89 101.15,610.33 c 11.02,56.66 41.05,103.95 90.1,141.88 49.05,37.92 106.03,58.45 170.94,61.57 81.46,-1.93 145.06,-28.4 190.82,-79.41 45.76,-51.02 63.3,-114.97 52.6,-191.86 -16.57,-89.3 -78.43,-181.95 -185.59,-277.94 -107.16,-96 -247.17,-184.19 -420.02,-264.57 z m 2631.2,-1052.782 123.66,746.082 h 644.62 L 4616.05,684.098 c -7.57,-43.578 -19.76,-80.469 -36.57,-110.664 -16.81,-30.192 -35.37,-49.231 -55.69,-57.114 -31.08,-11.379 -57.6,-32.351 -79.56,-62.918 -21.96,-30.566 -36.57,-66.711 -43.84,-108.433 -6.76,-47.594 2.24,-87.156 26.98,-118.68 24.74,-31.527 59.64,-47.883 104.68,-49.074 h 838 c 47.27,1.191 89,17.547 125.18,49.074 36.19,31.524 58.01,71.086 65.48,118.68 6.12,39.937 2.77,75.187 -10.04,105.754 -12.82,30.566 -32.8,52.433 -59.95,65.597 -17.5,7.883 -29.33,26.922 -35.49,57.114 -6.16,30.195 -6.55,67.086 -1.17,110.664 l 280.9,1694.832 c 7.9,45.5 20.33,83.86 37.31,115.09 16.98,31.22 35.49,49.95 55.54,56.2 30.98,11.23 57.54,31.59 79.68,61.11 22.14,29.51 37.64,65.05 46.51,106.6 7.14,49.52 -1.75,90.55 -26.67,123.12 -24.93,32.56 -60.86,48.61 -107.79,48.17 h -838.01 c -45.42,-1.11 -85.76,-17.62 -121.02,-49.51 -35.25,-31.89 -57.53,-72.49 -66.83,-121.78 -6.27,-39.99 -3.47,-75.08 8.42,-105.26 11.89,-30.19 31.49,-51 58.78,-62.45 17.51,-7.81 29.32,-26.99 35.42,-57.54 6.1,-30.55 6.32,-68.47 0.65,-113.75 l -101.13,-610.2 H 4151.2 l 101.13,610.2 c 7.9,45.5 20.33,83.86 37.31,115.09 16.98,31.22 35.5,49.95 55.54,56.2 30.98,11.23 57.55,31.59 79.68,61.11 22.14,29.51 37.64,65.05 46.51,106.6 7.15,49.52 -1.74,90.55 -26.67,123.12 -24.93,32.56 -60.86,48.61 -107.79,48.17 H 3498.9 c -45.42,-1.11 -85.76,-17.62 -121.02,-49.51 -35.25,-31.89 -57.53,-72.49 -66.83,-121.78 -6.27,-39.99 -3.46,-75.08 8.43,-105.26 11.88,-30.19 31.48,-51 58.77,-62.45 17.51,-7.81 29.32,-26.99 35.42,-57.54 6.1,-30.55 6.32,-68.47 0.65,-113.75 L 3133.43,684.098 c -7.58,-43.578 -19.77,-80.469 -36.58,-110.664 -16.81,-30.192 -35.37,-49.231 -55.69,-57.114 -31.08,-11.379 -57.6,-32.351 -79.56,-62.918 -21.96,-30.566 -36.57,-66.711 -43.84,-108.433 -6.76,-47.594 2.24,-87.156 26.98,-118.68 24.74,-31.527 59.64,-47.883 104.68,-49.074 h 838.01 c 47.27,1.191 88.99,17.547 125.18,49.074 36.18,31.524 58,71.086 65.47,118.68 6.12,39.937 2.78,75.187 -10.04,105.754 -12.82,30.566 -32.8,52.433 -59.95,65.597 -17.5,7.883 -29.32,26.922 -35.49,57.114 -6.16,30.195 -6.55,67.086 -1.17,110.664 z m 1928.06,-339.11 c -6.76,-47.605 2.23,-87.172 26.97,-118.699 24.75,-31.527 59.64,-47.883 104.68,-49.074 h 386.77 c 47.27,1.191 89,17.547 125.18,49.074 36.19,31.527 58.02,71.094 65.48,118.699 5.69,45.844 -0.07,85.867 -17.29,120.075 -17.23,34.207 -33.9,66.031 -50.03,95.476 -16.12,29.445 -19.69,59.949 -10.71,91.512 13.97,42.922 36.95,95.437 68.94,157.547 32,62.113 72.5,133.371 121.52,213.782 h 773.55 c 11.31,-115.595 19.7,-203.962 25.19,-265.107 5.49,-61.144 6.27,-108.453 2.35,-141.925 -4.94,-32.711 -20.27,-62.508 -45.98,-89.395 -25.72,-26.89 -51.75,-54.574 -78.1,-83.051 -26.36,-28.472 -42.96,-61.445 -49.82,-98.914 -6.83,-47.605 2.3,-87.172 27.4,-118.699 25.1,-31.527 60.98,-47.883 107.64,-49.074 h 804.08 c 47.28,1.191 89,17.547 125.19,49.074 36.18,31.527 58,71.094 65.47,118.699 3.9,33.742 -4.67,66.231 -25.69,97.461 -21.02,31.231 -43.56,65.836 -67.61,103.809 -24.06,37.976 -38.68,83.953 -43.87,137.926 -25,444.516 -65.79,839.796 -122.38,1185.836 -56.58,346.03 -127.65,640.57 -213.18,883.6 -15.84,41.33 -41.43,73.75 -76.76,97.24 -35.34,23.49 -76.9,36.28 -124.69,38.36 h -227.31 c -48.44,-0.52 -94.59,-12.86 -138.46,-37.02 -43.86,-24.16 -79.84,-57.02 -107.94,-98.58 C 7093.29,2410.68 6878.71,2066.2 6686.36,1720.17 6494.01,1374.14 6325.1,1028.82 6179.63,684.184 c -26.15,-57.282 -59.87,-104.579 -101.18,-141.891 -41.31,-37.316 -79.54,-70.859 -114.69,-100.637 -35.15,-29.777 -56.58,-62 -64.27,-96.668 z m 983.86,1084.742 c 102.38,225.41 251.03,474.01 445.92,745.81 26.43,-96.43 49.68,-206.9 69.75,-331.42 20.08,-124.53 37.05,-262.66 50.92,-414.39 z m 1857.71,1288.2 c -3.01,-48.02 11.99,-97.38 45.01,-148.09 33.02,-50.7 52.44,-114.33 58.27,-190.91 0.77,-385.98 31.49,-755.02 92.17,-1107.1 60.67,-352.084 150.19,-683.65 268.56,-994.697 12.55,-30.481 34.48,-54.27 65.78,-71.367 31.31,-17.102 68.32,-26.618 111.05,-28.551 h 291.78 c 41.19,0.375 80.02,9.441 116.46,27.211 36.45,17.769 67.61,42.004 93.48,72.707 245.58,312.832 467.88,645.289 666.98,997.377 199.1,352.08 372.2,720.22 519.4,1104.42 23.8,56 56.3,102.21 97.6,138.64 41.3,36.44 80,69.7 116.1,99.79 36,30.09 58.2,63.61 66.4,100.57 7.1,49.52 -1.7,90.55 -26.3,123.12 -24.5,32.56 -59.5,48.61 -104.8,48.17 h -515.7 c -47.2,-1.11 -89,-17.62 -125.2,-49.51 -36.3,-31.89 -58.3,-72.49 -66,-121.78 -6,-55.53 8.1,-99.89 42.1,-133.08 34.1,-33.2 67.1,-64.61 99.1,-94.24 32,-29.62 42,-66.85 29.9,-111.68 -83.8,-248.37 -192.9,-500.09 -327.4,-755.16 -134.6,-255.07 -292.8,-511.25 -474.76,-768.551 -81.97,243.171 -141.66,495.491 -179.04,756.951 -37.39,261.46 -52.14,528.94 -44.28,802.45 3.73,35.99 21.1,68.28 52.12,96.88 31.03,28.59 62.87,58.77 95.55,90.53 32.68,31.76 53.37,70.4 62.06,115.9 7.08,49.52 -1.67,90.55 -26.24,123.12 -24.57,32.56 -59.51,48.61 -104.83,48.17 h -807.47 c -45.42,-1.11 -85.76,-17.62 -121.01,-49.51 -35.26,-31.89 -57.54,-72.49 -66.84,-121.78 z M 11538.7,177.215 h 321.9 c 45.5,1.191 85.8,17.547 121,49.066 35.2,31.524 57.3,71.071 66.3,118.653 6.6,41.703 3.9,77.836 -7.9,108.39 -11.8,30.555 -31.4,51.52 -58.7,62.895 -17.5,7.879 -29.4,26.91 -35.5,57.094 -6.2,30.183 -6.6,67.054 -1.2,110.621 l 202.3,1220.406 826.5,-1627.207 c 15.4,-32.488 38.4,-57.617 68.9,-75.383 30.6,-17.77 66.6,-25.945 107.9,-24.535 h 257.7 c 45.4,1.191 85.7,17.547 120.8,49.066 35.2,31.524 57.2,71.071 66.3,118.653 l 337.1,2033.996 c 7.9,45.5 20.3,83.86 37.3,115.09 17,31.22 35.5,49.95 55.5,56.2 31,11.23 57.6,31.59 79.7,61.11 22.1,29.51 37.6,65.05 46.5,106.6 7.2,49.52 -1.7,90.55 -26.7,123.12 -24.9,32.56 -60.8,48.61 -107.8,48.17 h -321.8 c -45.5,-1.11 -85.8,-17.62 -121.1,-49.51 -35.3,-31.89 -57.5,-72.49 -66.8,-121.78 -6.3,-39.99 -3.5,-75.08 8.4,-105.26 11.9,-30.19 31.5,-51 58.8,-62.45 17.5,-7.81 29.3,-26.99 35.4,-57.54 6.1,-30.55 6.3,-68.47 0.7,-113.75 l -162.7,-981.31 -761.8,1423.8 c -12.1,21.56 -31.4,38.21 -57.9,49.96 -26.4,11.75 -57.7,17.69 -93.7,17.84 h -708.7 c -45.5,-1.11 -85.8,-17.62 -121.1,-49.51 -35.2,-31.89 -57.5,-72.49 -66.8,-121.78 -7.1,-66.74 12,-120 57.1,-159.78 45.1,-39.78 90.3,-79.56 135.4,-119.35 45.1,-39.78 64.2,-93.04 57.1,-159.78 L 11622.7,683.934 c -7.6,-43.567 -19.8,-80.438 -36.6,-110.621 -16.8,-30.184 -35.3,-49.215 -55.7,-57.094 -31,-11.375 -57.6,-32.34 -79.9,-62.895 -22.3,-30.554 -37.9,-66.687 -46.8,-108.39 -6.9,-47.582 2.3,-87.129 27.4,-118.653 25.1,-31.519 61,-47.875 107.6,-49.066 z M 13986,344.988 c -6.7,-47.605 2.3,-87.172 27,-118.699 24.8,-31.527 59.7,-47.883 104.7,-49.074 h 386.8 c 47.2,1.191 89,17.547 125.2,49.074 36.1,31.527 58,71.094 65.4,118.699 5.7,45.844 0,85.867 -17.3,120.075 -17.2,34.207 -33.9,66.031 -50,95.476 -16.1,29.445 -19.7,59.949 -10.7,91.512 14,42.922 36.9,95.437 68.9,157.547 32,62.113 72.5,133.371 121.6,213.782 h 773.5 c 11.3,-115.595 19.7,-203.962 25.2,-265.107 5.5,-61.144 6.3,-108.453 2.3,-141.925 -4.9,-32.711 -20.2,-62.508 -45.9,-89.395 -25.7,-26.89 -51.8,-54.574 -78.1,-83.051 -26.4,-28.472 -43,-61.445 -49.9,-98.914 -6.8,-47.605 2.4,-87.172 27.4,-118.699 25.1,-31.527 61,-47.883 107.7,-49.074 h 804.1 c 47.2,1.191 89,17.547 125.2,49.074 36.1,31.527 58,71.094 65.4,118.699 3.9,33.742 -4.6,66.231 -25.7,97.461 -21,31.231 -43.5,65.836 -67.6,103.809 -24,37.976 -38.6,83.953 -43.8,137.926 -25,444.516 -65.8,839.796 -122.4,1185.836 -56.6,346.03 -127.7,640.57 -213.2,883.6 -15.8,41.33 -41.4,73.75 -76.8,97.24 -35.3,23.49 -76.9,36.28 -124.6,38.36 H 15663 c -48.4,-0.52 -94.5,-12.86 -138.4,-37.02 -43.9,-24.16 -79.9,-57.02 -108,-98.58 -236.8,-342.94 -451.3,-687.42 -643.7,-1033.45 -192.3,-346.03 -361.2,-691.35 -506.7,-1035.986 -26.2,-57.282 -59.9,-104.579 -101.2,-141.891 -41.3,-37.316 -79.5,-70.859 -114.7,-100.637 -35.1,-29.777 -56.6,-62 -64.3,-96.668 z m 983.9,1084.742 c 102.4,225.41 251,474.01 445.9,745.81 26.5,-96.43 49.7,-206.9 69.8,-331.42 20.1,-124.53 37,-262.66 50.9,-414.39 z m 2417.8,-642.312 c -9,-60.961 -2.8,-117.461 18.5,-169.5 21.4,-52.039 51.4,-97.836 90.1,-137.387 117.1,-119.922 250.3,-211.554 399.7,-274.886 149.4,-63.336 307.8,-95.262 475.2,-95.782 204,2.242 395.8,50.047 575.6,143.414 179.7,93.368 331.4,218.852 455,376.453 123.7,157.598 203.4,333.868 239.1,528.81 25.5,182.65 -29.6,345.46 -165.5,488.42 -135.8,142.96 -328.1,240.65 -576.9,293.06 -128.6,27.15 -228.8,73.72 -300.5,139.7 -71.7,65.99 -102.2,138.44 -91.6,217.37 18.9,97.08 70,177.87 153.4,242.36 83.4,64.5 180.2,97.97 290.2,100.43 107,-2.38 196.7,-48.5 269.3,-138.37 72.5,-89.86 117.1,-209.18 133.6,-357.96 7.8,-58.32 32.8,-97.2 75,-116.64 42.3,-19.45 85.3,-19.45 129.1,0 43.8,19.44 71.9,58.32 84.3,116.64 l 67.5,407.06 c 2.9,18 1.7,35.56 -3.6,52.66 -5.3,17.11 -14.4,32.87 -27.4,47.3 -92.3,94.79 -204.4,167.09 -336.4,216.9 -132,49.82 -277.4,74.91 -436.2,75.28 -198.2,-1.85 -383.5,-41.34 -555.9,-118.46 -172.5,-77.13 -316.9,-180.84 -433.4,-311.14 -116.4,-130.29 -189.6,-276.11 -219.7,-437.44 -33.1,-230.06 21.7,-432 164.2,-605.82 142.5,-173.82 347.5,-288.31 614.8,-343.47 110.3,-23.2 195.9,-64.23 257,-123.11 61.1,-58.884 86.6,-124.9 76.6,-198.052 -20,-100.731 -78.2,-184.738 -174.5,-252.02 -96.3,-67.277 -208.3,-102.218 -335.9,-104.82 -108.4,1.41 -202.7,35.164 -283,101.254 -80.3,66.09 -137.4,156.043 -171.2,269.859 -16.6,56.649 -44.1,103.934 -82.5,141.848 -38.4,37.914 -85.6,58.431 -141.6,61.551 -58.9,-2.23 -109.6,-26.313 -151.9,-72.258 -42.4,-45.942 -69.3,-100.359 -80.5,-163.254 z m 2237.9,-442.43 c -6.8,-47.605 2.2,-87.172 27,-118.699 24.7,-31.527 59.6,-47.883 104.7,-49.074 h 386.7 c 47.3,1.191 89,17.547 125.2,49.074 36.2,31.527 58,71.094 65.5,118.699 5.7,45.844 -0.1,85.867 -17.3,120.075 -17.2,34.207 -33.9,66.031 -50,95.476 -16.2,29.445 -19.7,59.949 -10.7,91.512 13.9,42.922 36.9,95.437 68.9,157.547 32,62.113 72.5,133.371 121.5,213.782 h 773.6 c 11.3,-115.595 19.7,-203.962 25.2,-265.107 5.4,-61.144 6.2,-108.453 2.3,-141.925 -4.9,-32.711 -20.3,-62.508 -46,-89.395 -25.7,-26.89 -51.7,-54.574 -78.1,-83.051 -26.3,-28.472 -42.9,-61.445 -49.8,-98.914 -6.8,-47.605 2.3,-87.172 27.4,-118.699 25.1,-31.527 61,-47.883 107.6,-49.074 h 804.1 c 47.3,1.191 89,17.547 125.2,49.074 36.2,31.527 58,71.094 65.5,118.699 3.9,33.742 -4.7,66.231 -25.7,97.461 -21,31.231 -43.6,65.836 -67.6,103.809 -24.1,37.976 -38.7,83.953 -43.9,137.926 -25,444.516 -65.8,839.796 -122.4,1185.836 -56.6,346.03 -127.6,640.57 -213.1,883.6 -15.9,41.33 -41.5,73.75 -76.8,97.24 -35.3,23.49 -76.9,36.28 -124.7,38.36 h -227.3 c -48.4,-0.52 -94.6,-12.86 -138.5,-37.02 -43.8,-24.16 -79.8,-57.02 -107.9,-98.58 -236.8,-342.94 -451.4,-687.42 -643.7,-1033.45 -192.4,-346.03 -361.3,-691.35 -506.8,-1035.986 -26.1,-57.282 -59.8,-104.579 -101.1,-141.891 -41.3,-37.316 -79.6,-70.859 -114.7,-100.637 -35.2,-29.777 -56.6,-62 -64.3,-96.668 z m 983.9,1084.742 c 102.4,225.41 251,474.01 445.9,745.81 26.4,-96.43 49.7,-206.9 69.7,-331.42 20.1,-124.53 37.1,-262.66 51,-414.39 z m 2993.9,-745.71 95.8,578.2 182.8,17.84 c 45.5,-73.46 85.4,-160.31 119.6,-260.54 34.3,-100.235 63.3,-212.067 86.9,-335.5 2,-36.434 -18,-81.348 -60,-134.735 -42,-53.39 -73.5,-121.5 -94.6,-204.332 -6.8,-47.59 2.4,-87.144 27.5,-118.668 25.1,-31.523 60.9,-47.879 107.6,-49.07 h 868.5 c 47.3,1.191 89,17.547 125.2,49.07 36.2,31.524 58,71.078 65.5,118.668 0.9,29.817 -15.5,61.195 -49.3,94.133 -33.8,32.941 -58.4,81.273 -73.9,144.996 -29,162.547 -68.3,320.184 -118,472.908 -49.7,152.73 -110.3,299.66 -181.8,440.79 161.9,75.7 296.4,176.82 403.5,303.38 107.2,126.55 173.8,263.37 199.9,410.45 18.9,126.32 -7.8,240.39 -79.8,342.21 -72.1,101.81 -178.3,182.81 -318.8,242.99 -140.4,60.18 -303.7,90.98 -489.9,92.41 h -1289.2 c -45.5,-1.11 -85.8,-17.59 -121.1,-49.45 -35.2,-31.85 -57.5,-72.38 -66.8,-121.61 -6.2,-39.94 -3.4,-74.98 8.5,-105.13 11.9,-30.14 31.5,-50.93 58.8,-62.37 17.5,-7.8 29.3,-26.98 35.4,-57.54 6.1,-30.56 6.3,-68.48 0.6,-113.76 L 22765.4,684.02 c -7.6,-43.575 -19.8,-80.454 -36.6,-110.645 -16.8,-30.187 -35.4,-49.223 -55.7,-57.105 -31.1,-11.375 -57.6,-32.344 -79.6,-62.907 -21.9,-30.558 -36.5,-66.699 -43.8,-108.41 -6.7,-47.59 2.2,-87.144 27,-118.668 24.7,-31.523 59.6,-47.879 104.7,-49.07 h 838 c 47.2,1.191 89,17.547 125.2,49.07 36.1,31.524 58,71.078 65.4,118.668 6.2,39.93 2.8,75.172 -10,105.735 -12.8,30.558 -32.8,52.421 -60,65.582 -17.5,7.882 -29.3,26.918 -35.5,57.105 -6.1,30.191 -6.5,67.07 -1.1,110.645 z m 152,917.27 106.5,642.44 c 16.4,85.96 57,157.64 121.7,215.04 64.7,57.4 138.4,88.03 220.9,91.89 81.3,-3.27 142.1,-46.69 182.4,-130.26 40.4,-83.58 51.3,-187.67 32.7,-312.3 -16.9,-87.81 -84.8,-177.19 -203.5,-268.13 -118.8,-90.93 -272.3,-170.5 -460.7,-238.68 z M 25623.3,177.664 h 1740.5 c 41.7,0.52 80.9,12.844 117.6,36.973 36.7,24.129 64.9,56.945 84.6,98.449 l 134.2,338.797 c 23.9,52.433 23.3,99.293 -1.7,140.57 -25.1,41.281 -66.4,62.254 -124,62.926 -69,-4.188 -131.1,-33.5 -186.4,-87.934 -55.3,-54.429 -110.7,-108.863 -166.4,-163.297 -55.7,-54.433 -118.5,-83.746 -188.6,-87.933 h -352.9 c -46.8,1.191 -83.1,17.555 -108.9,49.09 -25.7,31.539 -34.4,71.105 -26.1,118.707 l 118.3,714.028 c 3.6,18.22 12.7,33.54 27.2,45.96 14.5,12.42 30.7,19.71 48.6,21.86 h 322.3 c 38.4,-2.11 70,-16.92 94.6,-44.42 24.7,-27.51 49.4,-55.01 74.1,-82.51 24.6,-27.5 56.2,-42.31 94.6,-44.43 45.5,1.12 85.8,17.63 121.1,49.54 35.2,31.91 57.5,72.51 66.8,121.82 l 56.1,338.56 c 6.8,47.61 -2.2,87.18 -27,118.72 -24.7,31.54 -59.6,47.9 -104.6,49.09 -39.2,-2.07 -75.9,-16.57 -110,-43.5 -34.2,-26.94 -68.1,-53.87 -101.9,-80.8 -33.8,-26.94 -69.7,-41.44 -107.7,-43.51 h -322.3 c -17.3,0.59 -30.7,7.44 -40.3,20.53 -9.7,13.09 -14,28.86 -13,47.31 l 84.1,507.02 c 9.2,49.54 31.7,90.6 67.5,123.18 35.7,32.58 76.9,48.65 123.7,48.2 h 257.9 c 65.7,-3.78 118.2,-30.32 157.7,-79.61 39.4,-49.28 78.7,-98.56 117.7,-147.84 39.1,-49.29 90.9,-75.82 155.5,-79.62 53,1.64 98.3,16.22 135.7,43.75 37.4,27.52 54,58.16 49.6,91.94 l -36.3,374.52 c -7.3,41.5 -26.1,74.32 -56.2,98.45 -30.2,24.13 -68.4,36.45 -114.8,36.97 h -1611.5 c -45.4,-1.11 -85.8,-17.59 -121,-49.45 -35.3,-31.85 -57.5,-72.38 -66.8,-121.61 -6.3,-39.94 -3.5,-74.98 8.4,-105.13 11.9,-30.14 31.5,-50.93 58.8,-62.37 17.5,-7.81 29.3,-27 35.4,-57.57 6.1,-30.57 6.3,-68.51 0.7,-113.81 l -281,-1695.268 c -7.6,-43.586 -19.8,-80.477 -36.6,-110.672 -16.8,-30.199 -35.4,-49.238 -55.7,-57.125 -31,-11.356 -57.6,-32.293 -79.5,-62.809 -22,-30.515 -36.6,-66.597 -43.8,-108.246 -6.8,-47.519 2.2,-87.015 27,-118.496 24.7,-31.48 59.6,-47.812 104.7,-49 z m 2481.7,0 h 1740.4 c 41.8,0.52 81,12.844 117.7,36.973 36.7,24.129 64.9,56.945 84.6,98.449 l 134.2,338.797 c 23.9,52.433 23.3,99.293 -1.7,140.57 -25.1,41.281 -66.4,62.254 -124.1,62.926 -68.9,-4.188 -131,-33.5 -186.3,-87.934 -55.3,-54.429 -110.8,-108.863 -166.4,-163.297 -55.7,-54.433 -118.6,-83.746 -188.6,-87.933 h -352.9 c -46.8,1.191 -83.2,17.555 -108.9,49.09 -25.7,31.539 -34.4,71.105 -26.1,118.707 l 118.3,714.028 c 3.6,18.22 12.7,33.54 27.2,45.96 14.5,12.42 30.6,19.71 48.5,21.86 h 322.3 c 38.5,-2.11 70,-16.92 94.7,-44.42 24.7,-27.51 49.4,-55.01 74,-82.51 24.7,-27.5 56.3,-42.31 94.7,-44.43 45.4,1.12 85.8,17.63 121,49.54 35.3,31.91 57.6,72.51 66.9,121.82 l 56.1,338.56 c 6.7,47.61 -2.2,87.18 -27,118.72 -24.7,31.54 -59.6,47.9 -104.7,49.09 -39.1,-2.07 -75.8,-16.57 -110,-43.5 -34.1,-26.94 -68,-53.87 -101.8,-80.8 -33.8,-26.94 -69.7,-41.44 -107.7,-43.51 H 29277 c -17.2,0.59 -30.6,7.44 -40.2,20.53 -9.7,13.09 -14,28.86 -13,47.31 l 84.1,507.02 c 9.2,49.54 31.7,90.6 67.4,123.18 35.8,32.58 77,48.65 123.8,48.2 h 257.9 c 65.7,-3.78 118.2,-30.32 157.7,-79.61 39.4,-49.28 78.6,-98.56 117.7,-147.84 39.1,-49.29 90.9,-75.82 155.4,-79.62 53.1,1.64 98.4,16.22 135.8,43.75 37.4,27.52 53.9,58.16 49.6,91.94 l -36.3,374.52 c -7.4,41.5 -26.1,74.32 -56.2,98.45 -30.2,24.13 -68.4,36.45 -114.8,36.97 h -1611.5 c -45.5,-1.11 -85.8,-17.59 -121,-49.45 -35.3,-31.85 -57.6,-72.38 -66.8,-121.61 -6.3,-39.94 -3.5,-74.98 8.4,-105.13 11.9,-30.14 31.5,-50.93 58.8,-62.37 17.5,-7.81 29.3,-27 35.4,-57.57 6.1,-30.57 6.3,-68.51 0.6,-113.81 L 28188.9,684.012 c -7.6,-43.586 -19.8,-80.477 -36.6,-110.672 -16.8,-30.199 -35.4,-49.238 -55.7,-57.125 -31.1,-11.356 -57.6,-32.293 -79.5,-62.809 -22,-30.515 -36.6,-66.597 -43.8,-108.246 -6.8,-47.519 2.2,-87.015 27,-118.496 24.7,-31.48 59.6,-47.812 104.7,-49"
         style="fill:#ff5100;fill-opacity:1;fill-rule:evenodd;stroke:none"
         id="path20" /></g></g></svg>
